<svg width="385" height="187" viewBox="0 0 385 187" fill="none" xmlns="http://www.w3.org/2000/svg">
    <path d="M14.0852 46.8001C13.2506 46.8001 12.4963 46.4792 11.8222 45.8372C11.1803 45.1631 10.8593 44.2322 10.8593 43.0446L7.48891 39.6742L10.8593 36.9779H24.7741C27.6309 36.9779 30.0062 36.4964 31.9 35.5335C33.7939 34.5705 35.2222 33.094 36.1852 31.1038C37.1482 29.0816 37.6297 26.5298 37.6297 23.4483C37.6297 20.2063 37.0679 17.6705 35.9445 15.8409C34.8531 14.0113 33.2803 12.7273 31.226 11.989C29.1716 11.2187 26.7321 10.8335 23.9074 10.8335H10.5704L6.42965 0.770508C7.55311 0.770508 8.90126 0.770508 10.4741 0.770508C12.079 0.770508 13.7321 0.770508 15.4334 0.770508C17.1667 0.770508 18.7716 0.770508 20.2482 0.770508C21.7568 0.770508 22.9766 0.770508 23.9074 0.770508C31.9963 0.770508 38.1272 2.53594 42.3 6.0668C46.505 9.56557 48.6074 15.2952 48.6074 23.2557C48.6074 26.2088 48.1902 29.0816 47.3556 31.8742C46.5531 34.6668 45.221 37.1866 43.3593 39.4335C41.5297 41.6804 39.0741 43.4779 35.9926 44.8261C32.9432 46.1421 29.1716 46.8001 24.6778 46.8001H14.0852ZM0.0740967 70.7779V0.770508H10.8593V70.7779H0.0740967Z" fill="#ffffff"/>
    <path d="M67.5883 70.7779V0.770508H108.899V9.91866H73.4624L78.2772 5.44088V32.789L73.4624 29.4668H105.192V38.615H75.6291L78.2772 34.8594V67.0224L73.4624 61.389H110.633V70.7779H67.5883Z" fill="#ffffff"/>
    <path d="M171.551 70.7779L155.517 43.1409H144.395L141.217 42.4187L142.614 35.0038V33.4631H155.614C158.503 33.4631 160.798 32.9495 162.499 31.9224C164.2 30.8952 165.42 29.4829 166.158 27.6853C166.929 25.8878 167.314 23.8335 167.314 21.5224C167.314 18.6656 166.848 16.4187 165.917 14.7816C164.987 13.1125 163.59 11.9088 161.729 11.1705C159.899 10.4322 157.588 10.0631 154.795 10.0631L145.262 10.015L145.166 7.80014L141.169 0.770508C142.646 0.770508 144.138 0.770508 145.647 0.770508C147.188 0.770508 148.664 0.770508 150.077 0.770508C151.521 0.770508 152.837 0.770508 154.025 0.770508C162.274 0.770508 168.389 2.3594 172.369 5.53718C176.382 8.68286 178.388 13.7063 178.388 20.6075C178.388 22.8545 178.099 25.1174 177.521 27.3964C176.975 29.6754 176.045 31.81 174.729 33.8001C173.445 35.7903 171.711 37.4915 169.529 38.9038C167.378 40.3162 164.698 41.2952 161.488 41.8409L160.477 40.3964C161.921 40.3964 163.093 40.5088 163.991 40.7335C164.89 40.9261 165.693 41.3754 166.399 42.0816C167.137 42.7878 167.94 43.9113 168.806 45.452L183.395 70.7779H171.551ZM134.958 70.7779V0.770508H145.551V70.7779H134.958Z" fill="#ffffff"/>
    <path d="M213.354 51.615L211.958 40.4927L224.476 22.6298L239.306 0.770508H252.065L229.002 33.0779L226.065 35.8705L213.354 51.615ZM203.002 70.7779V0.770508H213.691V70.7779H203.002ZM241.424 70.7779L220.624 33.1261L229.339 27.9742L253.269 70.7779H241.424Z" fill="#ffffff"/>
    <path d="M286.164 48.2446L263.342 0.770508H275.524L283.757 19.3557L290.738 35.9187H291.605L298.635 19.4038L306.964 0.770508H319.098L296.324 48.2446H286.164ZM285.972 70.7779V42.3224H296.516V70.7779H285.972Z" fill="#ffffff"/>
    <path d="M68.7371 185.592V115.585H89.1519C95.058 115.585 99.6803 116.355 103.019 117.896C106.357 119.437 108.716 121.507 110.096 124.107C111.509 126.707 112.215 129.612 112.215 132.822C112.215 137.091 111.123 140.686 108.941 143.607C106.758 146.496 104.014 148.278 100.707 148.952C103.147 149.048 105.522 149.674 107.833 150.829C110.144 151.985 112.054 153.686 113.563 155.933C115.072 158.148 115.826 160.924 115.826 164.263C115.826 169.078 114.719 173.074 112.504 176.252C110.321 179.397 107.4 181.741 103.741 183.281C100.082 184.822 96.0371 185.592 91.6074 185.592H68.7371ZM79.2334 176.444H90.0185C94.2877 176.444 97.6901 175.513 100.226 173.652C102.794 171.758 104.078 168.853 104.078 164.937C104.078 161.727 103.468 159.352 102.248 157.811C101.028 156.27 99.4074 155.259 97.3852 154.778C95.363 154.296 93.1482 154.055 90.7408 154.055H79.2334V176.444ZM79.2334 145.389H88.5259C91.4148 145.389 93.7741 144.971 95.6037 144.137C97.4334 143.302 98.7976 142.034 99.6963 140.333C100.595 138.632 101.044 136.481 101.044 133.881C101.077 130.768 100.226 128.457 98.4926 126.948C96.7914 125.407 93.4371 124.637 88.4297 124.637H79.2334V145.389Z" fill="#ffffff"/>
    <path d="M172.699 185.592L156.666 157.955H145.544L142.366 157.233L143.762 149.818V148.278H156.762C159.651 148.278 161.946 147.764 163.648 146.737C165.349 145.71 166.569 144.297 167.307 142.5C168.077 140.702 168.462 138.648 168.462 136.337C168.462 133.48 167.997 131.233 167.066 129.596C166.135 127.927 164.739 126.723 162.877 125.985C161.048 125.247 158.736 124.878 155.944 124.878L146.411 124.829L146.314 122.615L142.318 115.585C143.795 115.585 145.287 115.585 146.796 115.585C148.336 115.585 149.813 115.585 151.225 115.585C152.67 115.585 153.986 115.585 155.174 115.585C163.423 115.585 169.538 117.174 173.518 120.352C177.53 123.497 179.536 128.521 179.536 135.422C179.536 137.669 179.248 139.932 178.67 142.211C178.124 144.49 177.193 146.624 175.877 148.615C174.593 150.605 172.86 152.306 170.677 153.718C168.527 155.131 165.846 156.11 162.636 156.655L161.625 155.211C163.07 155.211 164.241 155.323 165.14 155.548C166.039 155.741 166.841 156.19 167.548 156.896C168.286 157.602 169.088 158.726 169.955 160.266L184.544 185.592H172.699ZM136.107 185.592V115.585H146.699V185.592H136.107Z" fill="#ffffff"/>
    <path d="M203.477 185.592V115.585H244.788V124.733H209.351L214.166 120.255V147.603L209.351 144.281H241.08V153.429H211.517L214.166 149.674V181.837L209.351 176.203H246.521V185.592H203.477Z" fill="#ffffff"/>
    <path d="M272.821 185.592L262.998 115.585H274.602L279.224 166.478C279.385 168.147 279.609 169.655 279.898 171.003C280.219 172.32 280.444 174.117 280.572 176.396H280.909L282.402 160.555L286.639 132.389H298.098L302.335 160.555L303.828 176.396H304.213C304.341 174.117 304.55 172.32 304.839 171.003C305.16 169.655 305.385 168.147 305.513 166.478L310.183 115.585H321.739L312.013 185.592H298.724L295.209 163.252C294.6 159.496 294.086 155.997 293.669 152.755C293.251 149.481 292.866 145.966 292.513 142.211H292.224C291.871 145.966 291.47 149.481 291.02 152.755C290.603 156.029 290.106 159.528 289.528 163.252L286.109 185.592H272.821Z" fill="#ffffff"/>
    <path d="M360.22 186.555C355.309 186.555 350.975 185.817 347.22 184.341C343.464 182.832 340.511 180.424 338.361 177.118C336.242 173.78 335.135 169.382 335.038 163.926H345.535C345.631 167.328 346.401 169.976 347.846 171.87C349.29 173.764 351.152 175.096 353.431 175.866C355.71 176.605 358.134 176.974 360.701 176.974C363.558 176.974 365.966 176.541 367.924 175.674C369.882 174.807 371.358 173.668 372.353 172.255C373.38 170.811 373.894 169.286 373.894 167.681C373.894 165.306 373.348 163.396 372.257 161.952C371.166 160.475 369.464 159.207 367.153 158.148C364.842 157.089 361.873 156.013 358.246 154.922C354.362 153.734 350.863 152.161 347.75 150.203C344.636 148.213 342.18 145.806 340.383 142.981C338.585 140.157 337.687 136.915 337.687 133.255C337.687 129.018 338.746 125.52 340.864 122.759C342.983 119.966 345.775 117.896 349.242 116.548C352.741 115.168 356.496 114.478 360.509 114.478C366.575 114.478 371.583 116.131 375.531 119.437C379.479 122.743 381.854 127.799 382.657 134.603H372.594C372.305 132.389 371.631 130.495 370.572 128.922C369.513 127.349 368.1 126.145 366.335 125.311C364.601 124.476 362.499 124.059 360.027 124.059C356.496 124.059 353.608 124.797 351.361 126.274C349.114 127.718 347.99 129.901 347.99 132.822C347.99 134.844 348.327 136.61 349.001 138.118C349.675 139.595 351.024 140.975 353.046 142.259C355.068 143.511 358.085 144.843 362.098 146.255C364.987 147.25 367.763 148.31 370.427 149.433C373.092 150.524 375.467 151.824 377.553 153.333C379.64 154.842 381.293 156.703 382.513 158.918C383.732 161.101 384.342 163.813 384.342 167.055C384.374 171.1 383.347 174.582 381.261 177.503C379.174 180.424 376.301 182.671 372.642 184.244C369.015 185.785 364.874 186.555 360.22 186.555Z" fill="#ffffff"/>
</svg>
